<?xml version="1.0" encoding="UTF-8"?>
<svg id="Layer_1" xmlns="http://www.w3.org/2000/svg" version="1.1" viewBox="0 0 439 88.8">
  <!-- Generator: Adobe Illustrator 29.3.1, SVG Export Plug-In . SVG Version: 2.1.0 Build 151)  -->
  <defs>
    <style>
      .st0 {
        fill: #f89e1b;
      }

      .st1 {
        fill: #fff;
      }
    </style>
  </defs>
  <path d="M437.7,77h0c-2.1-4.8-4.3-9.5-6.4-14-1.5-3.3-3.1-6.6-4.7-10,7.2-5.2,11.1-13.3,11.1-23.2,0-18.3-12.5-29.7-32.7-29.7h-35c-4.8,0-8.8,4-8.8,8.7v7.8l-4.2-10.9C355.7,2.2,352.4,0,348.6,0s-7,2.2-8.3,5.6l-10.4,26.9c-1.6-1.6-3.9-2.6-6.4-2.6h-20.9v-.8h12c4.9,0,8.9-4,8.9-8.9v-11.4c0-4.9-4-8.9-8.9-8.9h-32.9c-4.2,0-7.7,2.8-8.6,6.6-1-3.8-4.5-6.6-8.6-6.6h-.6c-13.3,0-24.2,2.6-32.5,7.8-2.2,1.3-4.4,3.1-6.6,5.2v-4.1c0-4.9-4-8.9-8.9-8.9h-11.3c-3.9,0-7.3,2.6-8.4,6.1-5.1-3.9-11.7-6.1-19-6.1s-13.5,2.2-18.9,6.3c-1.1-3.6-4.5-6.3-8.4-6.3h-11.9c-4.9,0-8.9,3.9-8.9,8.7v48.1c0,3.1-5.5,3.1-5.8,3.1-1.6,0-5.2-.4-5.8-3.7V22.5c0-5.1-4.1-9.2-9.2-9.2h-8.7v-4.6C99.4,3.9,95.4,0,90.4,0h-13.3c-3.1.4-5.7,2.2-7,4.9l-1,1.9C68.3,2.9,64.7,0,60.5,0h-13.3c-3.1.4-5.7,2.2-7,4.9L1.3,76.4v.2c-1.5,2.7-1.4,5.8.2,8.4,1.6,2.6,4.5,4.1,7.6,4.1h12.6c3.5,0,6.6-2,8-5l9.9-17.8v.9c0,4.7,3.9,8.6,8.6,8.6h11c3.1,0,6-1.7,7.5-4.4l2.9-5.1v13.5c0,5.1,4.2,9.2,9.2,9.2h11.2c5,0,9.1-4,9.2-9,6.1,5.5,14.2,9,23.1,9.1h.6c9.3,0,17.3-2.6,23.4-7.3.8,4.1,4.4,7.2,8.8,7.2h21.9c7.3,0,13.9-2.2,19.1-6,1.2,3.5,4.5,6,8.4,6h11.3c4.9,0,8.9-4,8.9-8.9v-3.6c7.7,7.4,19.9,12.5,39.1,12.5h69.6c3.9,0,7.3-2.4,8.4-6l6.9-19.6,6.9,19.6c1.1,3.5,4.5,6,8.3,6h29.4c4.9,0,8.9-3.9,8.9-8.7v-9.9l6.1,13.3c1.5,3.5,5.1,5.3,8.2,5.3h13.1c3,0,5.8-1.5,7.4-3.9,1.6-2.4,1.9-5.5.7-8.3h0Z"/>
  <path class="st0" d="M259.3,35.5h14v42.7c0,.4-.4.8-1,.8h-11.9c-18,0-43-4.1-43-36.7s24.8-36.7,43-36.7h.6c.6,0,1,.5,1,.8v12.7h-2.8c-8.9-.4-27.8.6-27.8,23.2s11.8,24.1,27.8,23.3v-16.1h-14.1v-14h14.1,0ZM311.2,65.4h-19.9v-16.5h28.8c.5,0,1-.5,1-.8v-11.6c0-.5-.5-.8-1-.8h-28.8v-16.6h19.9c.5,0,1-.4,1-1V6.6c0-.5-.4-1-1-1h-32.9c-.5,0-1,.5-1,.8v71.8c0,.4.5.8,1,.8h32.9c.5,0,1-.4,1-1v-11.7c0-.5-.4-1-1-1h0ZM346.2,6.2c-.3-.7-1.6-.7-1.8,0l-27.8,71.7c-.3.5,0,1.1.9,1.1h12.6c.4,0,.8-.2.9-.5l14.3-40.9,14.5,40.9c0,.4.5.5.8.5h12.7c.6,0,1.1-.5.8-1.1l-27.9-71.8h0ZM427.1,77.9c-4.6-10.2-9.5-20.3-14.1-30.6,7.3-2.7,13.5-8.5,13.5-19.7,0-21.6-20.6-21.8-24.8-21.8h-35.1c-.5,0-.9.5-.9.8v11.5c0,.5.4,1,1,1h35c2.2,0,10.8.5,10.8,8.5s-7.8,8.4-10.8,8.4h-23.7c-.5,0-1,.4-1,1v41.3c0,.4.5.8.9.8h12c.5,0,1-.5,1-.8v-28.8h7.9l13.4,29.1c0,.3.6.5.9.5h13.1c.7,0,1.1-.5.8-1.2h0Z"/>
  <path class="st1" d="M147.2,6.5v48.1c0,15.7-12.2,24.7-28,24.5-15-.2-27-12.5-27-27.5v-31.3c0-.7.6-1.3,1.3-1.3h11.3c.7,0,1.3.6,1.3,1.3v34.2c.8,7.2,6.9,11.1,13.7,11.1s13.7-3.6,13.7-11V6.4c0-.4.4-.8,1-.8h11.9c.5,0,.9.5.9.8h0ZM184.5,38.3c-5.2-2.5-10.4-2.5-10.8-2.5-4.7,0-9.2-2.8-9.2-8.1s4.1-8.9,9.2-8.9,8.8,2.5,9,7.7c0,.3.5.7,1,.7h11.5c.6,0,1.1-.5,1-.7-.2-12.5-9.9-20.9-22.5-20.9s-22.9,8.4-22.9,22.1,4.3,15.1,11.9,18.5c5.3,2.5,10.3,2.5,10.9,2.5,4.1.2,9.2,3.5,9.2,8.9s-4.3,8.2-9.2,8.2h-21.9c-.6,0-1,.5-1,1v11.2c0,.5.4,1,1,1h21.8s0,0,0,0c11.7,0,22.8-7.6,22.8-21.4s-4.2-15.8-11.9-19.4h0ZM212.4,5.6h-11.3c-.5,0-.9.4-.9.9v71.5c0,.5.4,1,.9,1h11.3c.5,0,.9-.4.9-1V6.6c0-.5-.4-.9-.9-.9ZM87.1,5.6h-12.1s0,0,0,0c-.4,0-.9.1-1,.5l-15.8,29V6.5c0-.4-.4-.8-1-.8h-12.1s0,0,0,0c-.4,0-.9.1-1,.5L4.8,77.9c-.3.5,0,1.1.9,1.1h12.6c.4,0,.8-.2.9-.5l24.9-44.7v31.3c0,.4.3.7.7.7h11c.2,0,.5-.1.6-.4l17.7-31.6v43.8c0,.7.6,1.4,1.3,1.4h11.2c.7,0,1.3-.6,1.3-1.4V6.5c0-.4-.4-.8-1-.8h0Z"/>
</svg>